<?xml version="1.0" encoding="utf-8"?>
<!-- Generator: Adobe Illustrator 27.5.0, SVG Export Plug-In . SVG Version: 6.00 Build 0)  -->
<svg version="1.1" xmlns="http://www.w3.org/2000/svg" xmlns:xlink="http://www.w3.org/1999/xlink" x="0px" y="0px"
	 viewBox="0 0 650 500" style="enable-background:new 0 0 650 500;" xml:space="preserve">
<g id="BACKGROUND">
	<rect style="fill:#DEEEFF;" width="650" height="500"/>
</g>
<g id="OBJECTS">
	<g>
		<defs>
			<path id="SVGID_1_" d="M100.222,357.519c-17.735-27.061-21.774-62.949-10.512-93.404c11.262-30.455,37.531-54.686,68.371-63.066
				c5.278-1.434,10.751-2.461,15.552-5.12c4.8-2.659,8.932-7.403,9.131-12.97c0.272-7.612-6.763-13.582-13.92-15.762
				c-7.157-2.18-14.851-1.871-22.054-3.885c-20.376-5.698-32.05-32.372-22.603-51.645c5.545-11.313,16.587-19.012,28.321-23.104
				c11.735-4.092,24.269-5.012,36.64-5.899c43.521-3.121,87.041-6.243,130.562-9.364c69.585-4.991,150.55-17.463,200.653,32.035
				c50.103,49.498,65.116,132.234,35.7,196.74c-29.174,63.976-108.481,143.857-262.772,150.479
				C218.094,455.781,142.042,421.33,100.222,357.519z"/>
		</defs>
		<use xlink:href="#SVGID_1_"  style="overflow:visible;fill:#4D57FF;"/>
		<clipPath id="SVGID_00000176734476223569721430000000856798371433660308_">
			<use xlink:href="#SVGID_1_"  style="overflow:visible;"/>
		</clipPath>
		<g style="clip-path:url(#SVGID_00000176734476223569721430000000856798371433660308_);">
			<path style="fill:#3E49E3;" d="M205.581,203.148c-6.203,1.592-12.538,3.508-17.472,7.592c-4.933,4.083-8.157,10.865-6.292,16.991
				c1.637,5.376,6.806,9.079,12.237,10.523c5.431,1.445,11.161,1.016,16.764,0.576c18.174-1.427,36.348-2.854,54.523-4.28
				c6.357-0.499,12.84-1.028,18.718-3.497c5.879-2.469,11.156-7.256,12.518-13.485c3.317-15.173-15.325-22.843-27.038-22.763
				C248.006,194.954,226.433,197.795,205.581,203.148z"/>
			<path style="fill:#3E49E3;" d="M318.422,485.582c7.551-9.841,9.738-23.558,5.62-35.259
				c-4.118-11.701-14.412-21.026-26.463-23.969c-5.177-1.264-11.699-2.286-13.306-7.366c-1.75-5.531,3.955-10.219,7.898-14.474
				c8.244-8.897,10.134-23.096,4.504-33.84c-5.63-10.744-18.38-17.271-30.388-15.556c-5.188,0.741-10.077,2.84-15.17,4.074
				c-5.093,1.234-10.777,1.509-15.278-1.176c-4.501-2.685-6.962-9.148-3.943-13.431c2.697-3.826,8.069-4.308,12.276-6.36
				c8.079-3.941,11.61-14.394,9.296-23.08c-2.314-8.686-9.388-15.501-17.441-19.495c-8.053-3.994-17.073-5.539-25.977-6.772
				c-48.339-6.696-97.755-5.561-145.735,3.349c13.053,33.43,28.568,69.036,51.354,96.763c24.177,29.42,57.698,50.024,93.054,64.167
				C244.078,467.3,281.203,477.53,318.422,485.582z"/>
			<path style="fill:#3E49E3;" d="M576.711,345.639c-10.196,12.172-24.117,21.179-39.399,25.491
				c-6.034,1.702-13.173,2.468-17.987-1.548c-3.528-2.944-4.857-7.702-7.377-11.544c-4.553-6.944-12.841-10.573-21.011-12.058
				c-8.17-1.485-16.561-1.198-24.795-2.274c-25.397-3.318-48.535-20.536-59.008-43.909c-10.474-23.373-7.924-52.101,6.502-73.264
				c14.426-21.163,40.234-34.037,65.818-32.831c8.191,0.386,16.594,2.085,24.453-0.257c7.858-2.342,14.76-10.826,11.705-18.435
				c-3.05-7.598-13.007-8.993-21.188-9.316c-8.181-0.323-18.178-2.021-20.872-9.752c-1.985-5.696,1.472-12.142,6.46-15.533
				c4.988-3.391,11.156-4.438,17.11-5.403c19.186-3.109,38.371-6.219,57.557-9.328c21.289,33.28,28.147,74.467,25.781,113.903
				L576.711,345.639z"/>
		</g>
		<g style="clip-path:url(#SVGID_00000176734476223569721430000000856798371433660308_);">
			
				<circle style="fill:none;stroke:#FFFFFF;stroke-width:1.5;stroke-linecap:round;stroke-linejoin:round;stroke-miterlimit:10;" cx="529.572" cy="163.101" r="5.366"/>
			
				<circle style="fill:none;stroke:#FFFFFF;stroke-width:1.5;stroke-linecap:round;stroke-linejoin:round;stroke-miterlimit:10;" cx="209.373" cy="406.341" r="5.366"/>
			
				<circle style="fill:none;stroke:#FFFFFF;stroke-width:1.5;stroke-linecap:round;stroke-linejoin:round;stroke-miterlimit:10;" cx="163.253" cy="220.838" r="5.366"/>
			
				<circle style="fill:none;stroke:#FFFFFF;stroke-width:1.5;stroke-linecap:round;stroke-linejoin:round;stroke-miterlimit:10;" cx="152.399" cy="122.4" r="5.366"/>
			<path style="fill:none;stroke:#FFFFFF;stroke-width:1.5;stroke-linecap:round;stroke-linejoin:round;stroke-miterlimit:10;" d="
				M513.195,214.065c0-1.763-1.429-3.193-3.193-3.193s-3.193,1.43-3.193,3.193s1.43,3.193,3.193,3.193
				S513.195,215.828,513.195,214.065z"/>
			<path style="fill:none;stroke:#FFFFFF;stroke-width:1.5;stroke-linecap:round;stroke-linejoin:round;stroke-miterlimit:10;" d="
				M155.592,244.842c0-1.763-1.43-3.193-3.193-3.193s-3.193,1.43-3.193,3.193c0,1.763,1.429,3.193,3.193,3.193
				S155.592,246.605,155.592,244.842z"/>
			<path style="fill:none;stroke:#FFFFFF;stroke-width:1.5;stroke-linecap:round;stroke-linejoin:round;stroke-miterlimit:10;" d="
				M500.736,122.4c0-1.763-1.43-3.193-3.193-3.193c-1.763,0-3.193,1.429-3.193,3.193c0,1.763,1.43,3.193,3.193,3.193
				C499.307,125.592,500.736,124.163,500.736,122.4z"/>
			<path style="fill:none;stroke:#FFFFFF;stroke-width:1.5;stroke-linecap:round;stroke-linejoin:round;stroke-miterlimit:10;" d="
				M456.901,177.5c0-1.763-1.429-3.193-3.193-3.193s-3.193,1.429-3.193,3.193c0,1.763,1.43,3.193,3.193,3.193
				S456.901,179.264,456.901,177.5z"/>
			<path style="fill:none;stroke:#FFFFFF;stroke-width:1.5;stroke-linecap:round;stroke-linejoin:round;stroke-miterlimit:10;" d="
				M324.572,85.765c0-1.763-1.43-3.193-3.193-3.193c-1.763,0-3.193,1.429-3.193,3.193c0,1.763,1.43,3.193,3.193,3.193
				C323.142,88.958,324.572,87.528,324.572,85.765z"/>
			<path style="fill:none;stroke:#FFFFFF;stroke-width:1.5;stroke-linecap:round;stroke-linejoin:round;stroke-miterlimit:10;" d="
				M166.445,141.291c0-1.763-1.43-3.193-3.193-3.193c-1.763,0-3.193,1.43-3.193,3.193c0,1.763,1.43,3.193,3.193,3.193
				C165.016,144.484,166.445,143.055,166.445,141.291z"/>
			<path style="fill:none;stroke:#FFFFFF;stroke-width:1.5;stroke-linecap:round;stroke-linejoin:round;stroke-miterlimit:10;" d="
				M103.781,332.532c0-1.763-1.429-3.193-3.193-3.193c-1.763,0-3.193,1.43-3.193,3.193s1.429,3.193,3.193,3.193
				C102.352,335.725,103.781,334.295,103.781,332.532z"/>
			<path style="fill:none;stroke:#FFFFFF;stroke-width:1.5;stroke-linecap:round;stroke-linejoin:round;stroke-miterlimit:10;" d="
				M249.825,117.034c0-1.763-1.429-3.193-3.193-3.193c-1.763,0-3.193,1.43-3.193,3.193c0,1.763,1.43,3.193,3.193,3.193
				C248.396,120.227,249.825,118.797,249.825,117.034z"/>
		</g>
	</g>
	<g>
		<path style="fill:#060305;" d="M139.093,276.86c-5.57-19.856-5.102-40.923-9.456-61.079c-5.794-26.82-20.478-51.575-40.943-69.819
			c-2.177-1.941-5.351,0.689-3.892,3.214c11.837,20.472,13.554,47.196,13.998,71.669c0.571,31.471-2.642,63.973,8.084,93.565
			c12.414,34.25,44.088,60.769,79.986,66.969l55.203-29.037C196.233,353.821,151.481,321.02,139.093,276.86z"/>
		<path style="fill:#060305;" d="M268.978,250.847c-50.548-41.806-38.528-97.754-37.917-110.969
			c1.574-34.032-16.217-68.068-44.332-87.078c-2.205-1.491-4.897,1.196-3.396,3.394c9.372,13.724,13.506,30.859,13.936,47.787
			c0.547,21.545-3.504,42.941-4.313,64.478c-2.293,60.993,22.913,122.5,67.349,164.344L252.39,450.62
			c32.798,3.881,72.409,2.142,110.638-6.792C330.216,301.759,285.484,264.498,268.978,250.847z"/>
		<path style="fill:#060305;" d="M411.64,57.952c-0.615-3.023-5.062-2.723-5.198,0.359c-0.989,22.254-12.738,44.389-24.75,63.982
			c-15.546,25.358-32.746,52.923-29.083,82.44l31.672,16.105c-5.394-20.144-1.205-41.642,5.426-61.413
			c6.631-19.771,15.691-38.781,20.389-59.099C413.236,86.746,414.443,71.726,411.64,57.952z"/>
		<path style="fill:#060305;" d="M489.729,42.221c-1.135-2.978-5.649-1.995-5.446,1.185c0.855,13.383-3.218,27.277-9.93,39.088
			c-9.426,16.587-23.507,29.936-37.154,43.268c-13.647,13.331-27.312,27.25-35.561,44.453
			c-10.907,22.748-11.293,48.866-14.856,73.841c-3.563,24.975-11.982,51.605-32.998,65.56l34.736,4.953
			c24.766-6.672,38.636-33.447,43.063-58.712c4.427-25.264,2.529-51.653,10.204-76.127c5.62-17.923,16.085-33.856,26.051-49.778
			c9.966-15.922,19.706-32.463,23.592-50.84C494.079,66.579,494.062,53.583,489.729,42.221z"/>
		<path style="fill:#060305;" d="M570.819,161.616c2.127-2.456-1.142-5.874-3.736-3.917c-16.99,12.812-29.716,31.192-34.189,51.978
			c-3.67,17.057-2.471,35.237-9.011,51.412c-5.997,14.834-17.857,26.38-26.901,39.58c-18.203,26.566-24.158,60.851-17.324,92.237
			c40.348-30.075,38.862-36.724,55.367-68.648c11.301-21.858,19.607-46.109,19.751-70.715c0.08-13.773-3.524-27.368-3.468-41.141
			C551.384,193.855,558.696,175.613,570.819,161.616z"/>
		<path style="fill:#060305;" d="M190.473,433.056c-13.692-39.533-47.125-67.736-87.085-80.564
			c-10.826-3.476-22.099-5.582-32.642-9.838c-6.166-2.49-12.176-5.864-17.114-10.273c-2.46-2.197-6.205,0.633-4.728,3.582
			c5.9,11.776,17.645,21.64,28.568,29.02C92.648,375.234,156.224,417.607,190.473,433.056z"/>
	</g>
	<g>
		<path style="fill:none;stroke:#060305;stroke-width:1.5;stroke-linecap:round;stroke-linejoin:round;stroke-miterlimit:10;" d="
			M48.569,222.83c-7.81-7.81-14.868,6.401,0,12.592C63.437,229.231,56.379,215.02,48.569,222.83z"/>
		<path style="fill:#97B8FF;" d="M550.233,377.174c-7.81-7.81-14.868,6.401,0,12.592
			C565.101,383.575,558.044,369.364,550.233,377.174z"/>
		<circle style="fill:#FFB800;" cx="536.1" cy="97.664" r="1.953"/>
		<path style="fill:#FFB800;" d="M599.647,242.889c0-1.078-0.874-1.953-1.953-1.953c-1.078,0-1.953,0.874-1.953,1.953
			s0.874,1.953,1.953,1.953C598.773,244.842,599.647,243.968,599.647,242.889z"/>
		<circle style="fill:#97B8FF;" cx="122.589" cy="419.025" r="1.953"/>
		<path style="fill:#FFB800;" d="M387.719,472.879c0-1.078-0.874-1.953-1.953-1.953c-1.078,0-1.953,0.874-1.953,1.953
			s0.874,1.953,1.953,1.953C386.844,474.832,387.719,473.958,387.719,472.879z"/>
		<path style="fill:#FFB800;" d="M177.526,125.485c0-1.078-0.874-1.953-1.953-1.953c-1.078,0-1.953,0.874-1.953,1.953
			s0.874,1.953,1.953,1.953C176.652,127.438,177.526,126.564,177.526,125.485z"/>
		<circle style="fill:#FFB800;" cx="370.402" cy="99.616" r="1.953"/>
		
			<circle style="fill:none;stroke:#060305;stroke-width:1.5;stroke-linecap:round;stroke-linejoin:round;stroke-miterlimit:10;" cx="320.641" cy="52.369" r="1.953"/>
		<path style="fill:#97B8FF;" d="M137.246,183.735c0-1.078-0.874-1.953-1.953-1.953s-1.953,0.874-1.953,1.953
			c0,1.078,0.874,1.953,1.953,1.953S137.246,184.814,137.246,183.735z"/>
		<polygon style="fill:#FFB800;" points="123.439,66.315 118.532,74.814 128.346,74.814 		"/>
		<polygon style="fill:#FFB800;" points="86.928,427.553 82.021,436.053 91.835,436.053 		"/>
		
			<polygon style="fill:none;stroke:#060305;stroke-width:1.5;stroke-linecap:round;stroke-linejoin:round;stroke-miterlimit:10;" points="
			469.224,213.915 474.131,205.416 464.316,205.416 		"/>
		<polygon style="fill:#FFB800;" points="274.271,103.33 279.178,94.83 269.363,94.83 		"/>
	</g>
	<g>
		<g>
			<path style="fill:#FF5B3B;" d="M353.302,410.682c-2.287,5.22-5.996,10.931-10.944,12.753c-1.408,0.543-2.933,0.749-4.548,0.543
				c-6.435-0.84-9.872-7.843-12.185-13.903c-10.828-28.375-21.656-56.737-32.484-85.111l24.757-34.938l23.206,3.514l13.425,2.029
				C369.557,332.018,369.104,374.555,353.302,410.682z"/>
			<g>
				<path style="fill:#FFFFFF;" d="M342.358,423.435c-1.408,0.543-2.933,0.749-4.548,0.543c-6.435-0.84-9.872-7.843-12.185-13.903
					c-10.828-28.375-21.656-56.737-32.484-85.111l24.757-34.938l23.206,3.514c5.66,23.452,10.337,47.188,10.763,71.26
					C352.217,384.672,349.452,404.971,342.358,423.435z"/>
				<path style="fill:none;stroke:#060305;stroke-width:1.5;stroke-linecap:round;stroke-linejoin:round;stroke-miterlimit:10;" d="
					M318.87,370.177c2.142,3.65,6.991,5.332,11.036,4.088c3.444-1.059,6.231-4.119,6.813-7.674c0.582-3.556-1.156-7.419-4.279-9.215
					C324.763,352.963,314.082,362.021,318.87,370.177z"/>
				<path style="fill:none;stroke:#060305;stroke-width:1.5;stroke-linecap:round;stroke-linejoin:round;stroke-miterlimit:10;" d="
					M324.689,392.791c0.151,3.63,3.475,6.837,7.109,6.857c3.634,0.02,6.993-3.148,7.185-6.777
					C339.508,382.948,324.274,382.851,324.689,392.791z"/>
				<path style="fill:none;stroke:#FFFFFF;stroke-width:1.5;stroke-linecap:round;stroke-linejoin:round;stroke-miterlimit:10;" d="
					M337.348,417.849c2.797,2.603,8.004,1.701,9.763-1.69"/>
			</g>
		</g>
		<g>
			<path style="fill:#FF5B3B;" d="M435.183,430.322c-0.879,3.45-2.494,7.223-4.794,9.91c-2.08,2.416-4.716,3.941-7.895,3.527
				c-6.809-0.892-8.825-9.523-10.324-16.216c-4.109-18.413-18.813-34.099-33.776-45.573c-21.087-16.164-35.055-41.309-37.626-67.745
				l47.924,15.208l29.098,9.239C436.565,364.709,443.116,399.208,435.183,430.322z"/>
			<g>
				<path style="fill:#FFFFFF;" d="M430.389,440.232c-2.08,2.416-4.716,3.941-7.895,3.527c-6.809-0.892-8.825-9.523-10.324-16.216
					c-4.109-18.413-18.813-34.099-33.776-45.573c-21.087-16.164-35.055-41.309-37.626-67.745l47.924,15.208
					c3.178,13.593,9.691,26.475,16.526,38.763c8.967,16.126,18.8,32.135,23.193,50.043
					C430.157,425.347,430.906,432.88,430.389,440.232z"/>
				<path style="fill:none;stroke:#060305;stroke-width:1.5;stroke-linecap:round;stroke-linejoin:round;stroke-miterlimit:10;" d="
					M367.44,370.273c2.217-3.064,6.249-4.702,9.975-4.052c3.726,0.65,6.965,3.555,8.015,7.189c1.049,3.634-0.142,7.819-2.948,10.355
					"/>
				<path style="fill:none;stroke:#060305;stroke-width:1.5;stroke-linecap:round;stroke-linejoin:round;stroke-miterlimit:10;" d="
					M395.119,396.504c1.456-3.089,5.327-4.79,8.598-3.808s5.559,4.503,5.166,7.895c-0.289,2.494-1.936,4.788-4.207,5.858"/>
				<path style="fill:none;stroke:#060305;stroke-width:1.5;stroke-linecap:round;stroke-linejoin:round;stroke-miterlimit:10;" d="
					M410.088,418.43c1.842-1.277,4.467-1.299,6.331-0.054c1.864,1.245,2.848,3.679,2.374,5.87c-0.474,2.191-2.377,4-4.589,4.363"/>
				<path style="fill:none;stroke:#FFFFFF;stroke-width:1.5;stroke-linecap:round;stroke-linejoin:round;stroke-miterlimit:10;" d="
					M421.967,438.12c4.094,1.467,9.148-1.633,9.697-5.947"/>
			</g>
			<path style="fill:none;stroke:#060305;stroke-width:1.5;stroke-linecap:round;stroke-linejoin:round;stroke-miterlimit:10;" d="
				M348.081,342.092c1.647,3.738,3.294,7.477,4.941,11.215"/>
		</g>
		<g>
			<path style="fill:#FF5B3B;" d="M310.908,365.122c-8.399,9.639-18.826,17.25-28.233,25.907
				c-9.406,8.657-18.064,18.891-21.281,31.256c-1.098,4.199-1.537,8.567-3.01,12.637c-1.486,4.083-4.264,7.998-8.373,9.381
				c-3.98,1.344-8.45-0.013-11.758-2.649c-0.375-0.297-0.737-0.607-1.073-0.93c-3.372-3.23-5.349-7.636-6.9-12.042
				c-9.277-26.398-5.065-57.15,10.957-80.085l36.334-26.372l50.767-36.838C336.337,312.611,329.527,343.712,310.908,365.122z"/>
			<g>
				<path style="fill:#FFFFFF;" d="M310.908,365.122c-8.399,9.639-18.826,17.25-28.233,25.907
					c-9.406,8.657-18.064,18.891-21.281,31.256c-1.098,4.199-1.537,8.567-3.01,12.637c-1.486,4.083-4.264,7.998-8.373,9.381
					c-3.98,1.344-8.45-0.013-11.758-2.649c-3.98-8.45-5.931-17.844-5.336-27.173c1.305-20.402,13.438-38.272,24.86-55.225
					c7.804-11.577,15.66-23.891,19.795-37.032l50.767-36.838C336.337,312.611,329.527,343.712,310.908,365.122z"/>
				<path style="fill:none;stroke:#060305;stroke-width:1.5;stroke-linecap:round;stroke-linejoin:round;stroke-miterlimit:10;" d="
					M309.316,367.839c11.568-12.316,19.228-28.248,21.625-44.973"/>
				<path style="fill:none;stroke:#060305;stroke-width:1.5;stroke-linecap:round;stroke-linejoin:round;stroke-miterlimit:10;" d="
					M253.2,406.437c2.432,2.849,7.194,3.296,10.112,0.948c2.919-2.347,3.504-7.094,1.243-10.08
					C258.637,389.49,246.836,398.981,253.2,406.437z"/>
				<path style="fill:none;stroke:#060305;stroke-width:1.5;stroke-linecap:round;stroke-linejoin:round;stroke-miterlimit:10;" d="
					M300.733,372.442c0.384-4.776-3.431-9.509-8.179-10.148c-4.748-0.638-9.678,2.919-10.569,7.627
					c-0.891,4.708,2.399,9.82,7.052,10.961"/>
				<path style="fill:none;stroke:#060305;stroke-width:1.5;stroke-linecap:round;stroke-linejoin:round;stroke-miterlimit:10;" d="
					M327.392,334.046c-3.412-2.122-8.082-2.003-11.382,0.29c-3.3,2.293-5.04,6.628-4.242,10.566c0.798,3.938,4.09,7.253,8.022,8.08"
					/>
				<path style="fill:none;stroke:#FFFFFF;stroke-width:1.5;stroke-linecap:round;stroke-linejoin:round;stroke-miterlimit:10;" d="
					M243.67,437.628c1.833,1.129,4.235,1.274,6.19,0.373c1.956-0.9,3.407-2.819,3.742-4.945"/>
			</g>
		</g>
		<g>
			<path style="fill:#FF5B3B;" d="M280.815,294.198c-4.07,10.712-12.533,19.601-22.728,25.609
				c-6.861,4.044-14.523,6.797-22.173,7.895c-15.958,2.313-31.967-6.435-42.303-18.813c-10.35-12.366-14.523-27.354-19.395-42.73
				c-5.466-1.124-9.794-6.37-9.871-11.952c-0.091-5.582,4.083-10.931,9.523-12.223c5.156-1.227,10.608,1.008,14.704,4.367
				c4.109,3.359,7.184,7.779,10.569,11.862c8.037,9.652,18.477,17.792,30.662,20.803c12.197,3.023,26.256,0.181,34.745-9.084
				L280.815,294.198z"/>
			<g>
				<path style="fill:#FFFFFF;" d="M258.087,319.808c-6.861,4.044-14.523,6.797-22.173,7.895
					c-15.958,2.313-31.967-6.435-42.303-18.813c-10.35-12.366-14.523-27.354-19.395-42.73l5.711,2.882
					c5,14.833,16.797,26.268,30.08,34.525c13.296,8.257,29.499,11.732,45.004,9.639
					C256.045,315.415,257.066,317.611,258.087,319.808z"/>
				<path style="fill:none;stroke:#060305;stroke-width:1.5;stroke-linecap:round;stroke-linejoin:round;stroke-miterlimit:10;" d="
					M182.554,292.375c3.275-0.173,6.581,1.591,8.262,4.407c1.681,2.816,1.665,6.563-0.041,9.364"/>
				<path style="fill:none;stroke:#060305;stroke-width:1.5;stroke-linecap:round;stroke-linejoin:round;stroke-miterlimit:10;" d="
					M200.771,315.135c2.45-1.402,5.699-1.266,8.024,0.336c2.324,1.602,3.608,4.59,3.17,7.379"/>
			</g>
			<path style="fill:none;stroke:#FFFFFF;stroke-width:1.5;stroke-linecap:round;stroke-linejoin:round;stroke-miterlimit:10;" d="
				M169.427,250.673c0.759-4.453,6.452-7.238,10.434-5.105"/>
		</g>
		<g>
			<path style="fill:#FF5B3B;" d="M494.581,256.598c-2.08,24.602-13.179,48.544-29.822,66.789
				c-6.784,7.43-15.57,14.343-25.623,14.097c-11.861,0.439-23.426-4.122-32.225-11.939c-3.36-2.959-6.319-6.409-8.735-10.221
				l5.776-42.265c16.552,5.853,36.257,1.576,48.88-10.634c5.155-5.001,9.122-11.086,13.774-16.552
				c4.665-5.479,10.337-10.518,17.301-12.288c6.965-1.77,15.376,0.594,18.761,6.926
				C506.055,246.856,501.765,256.456,494.581,256.598z"/>
			<g>
				<path style="fill:#FFFFFF;" d="M494.581,256.598c-2.08,24.602-13.179,48.544-29.822,66.789
					c-6.784,7.43-15.57,14.343-25.623,14.097c-11.861,0.439-23.426-4.122-32.225-11.939c71.776-11.435,81.803-67.745,81.803-67.745
					L494.581,256.598z"/>
				<path style="fill:none;stroke:#060305;stroke-width:1.5;stroke-linecap:round;stroke-linejoin:round;stroke-miterlimit:10;" d="
					M473.086,311.722c-2.966-2.112-7.489-1.607-9.917,1.106s-2.427,7.265,0.001,9.978"/>
				<path style="fill:none;stroke:#060305;stroke-width:1.5;stroke-linecap:round;stroke-linejoin:round;stroke-miterlimit:10;" d="
					M485.869,287.902c-2.646-0.801-5.772,0.531-7.025,2.995c-1.254,2.464-0.49,5.776,1.715,7.442"/>
				<path style="fill:none;stroke:#060305;stroke-width:1.5;stroke-linecap:round;stroke-linejoin:round;stroke-miterlimit:10;" d="
					M492.669,267.154c-2.054,0.129-3.961,1.595-4.615,3.546c-0.654,1.952-0.016,4.27,1.546,5.611"/>
			</g>
			<path style="fill:none;stroke:#FFFFFF;stroke-width:1.5;stroke-linecap:round;stroke-linejoin:round;stroke-miterlimit:10;" d="
				M473.946,242.889c3.422-4.667,9.282-7.435,15.06-7.113"/>
		</g>
		<g>
			<path style="fill:#FFB800;" d="M495.377,391.185c-0.179,4.599-0.653,9.208-4.083,12.313c-3.42,3.104-8.829,3.746-12.891,1.536
				c-6.419-3.483-7.819-11.86-10.892-18.5c-6.567-14.217-22.478-21.815-37.906-24.457c-15.417-2.663-31.297-1.558-46.735-4.104
				c-13.754-2.273-27.14-7.566-37.99-16.301c-10.839-8.745-19.006-21.058-21.658-34.749c-1.168,5.662-2.967,11.092-5.325,16.217
				c-11.365,24.73-35.622,42.704-63.078,47.167c-10.808,1.747-21.847,1.368-32.676,2.883c-10.839,1.494-21.952,5.251-29.129,13.512
				c-0.695,0.8-1.368,1.652-2.042,2.515c-3.589,4.62-7.135,9.703-12.734,10.039c-7.272,0.453-12.06-7.724-12.923-14.943
				c-1.989-16.722,7.345-33.033,19.658-44.515c10.008-9.334,21.9-16.248,33.538-23.51c2.684-1.673,5.367-3.368,7.998-5.114
				c14.038-9.303,27.793-24.173,33.991-39.821l0.284-13.428l0.652-29.94l0.074-3.599c-2.852-11.555-5.704-23.099-8.545-34.654
				c-4.809-19.532-1.231-42.441,11.124-58.322c1.063-1.368,2.189-2.684,3.378-3.936c15.038-15.838,38.811-22.805,60.026-17.585
				c21.215,5.22,39.053,22.426,45.03,43.431c5.135,18.016,10.197,34.665,15.354,52.681c11.187-2.094,21.658,3.052,26.488,13.333
				c4.83,10.292,1.852,23.699-6.904,30.96c1.863,8.703,3.273,17.132,5.146,25.835c3.399,15.87,15.607,28.351,27.856,39.011
				c12.249,10.66,25.614,20.163,36.443,32.265C487.737,359.519,496.02,374.957,495.377,391.185z"/>
			<g>
				<path style="fill:#060305;" d="M304.444,252.308c0-1.784-1.446-3.23-3.23-3.23c-1.784,0-3.23,1.446-3.23,3.23
					c0,1.784,1.446,3.23,3.23,3.23C302.997,255.538,304.444,254.092,304.444,252.308z"/>
				<path style="fill:#060305;" d="M396.25,240.997c0-1.784-1.446-3.23-3.23-3.23c-1.784,0-3.23,1.446-3.23,3.23
					c0,1.784,1.446,3.23,3.23,3.23C394.804,244.228,396.25,242.781,396.25,240.997z"/>
				<path style="fill:none;stroke:#060305;stroke-width:1.5;stroke-linecap:round;stroke-linejoin:round;stroke-miterlimit:10;" d="
					M293.835,224.359c1.152-4.333,4.535-8.008,8.758-9.514c4.223-1.506,9.168-0.799,12.801,1.828"/>
				<path style="fill:none;stroke:#060305;stroke-width:1.5;stroke-linecap:round;stroke-linejoin:round;stroke-miterlimit:10;" d="
					M384.398,220.544c4.053-0.815,8.106-1.63,12.159-2.445"/>
				<path style="fill:none;stroke:#060305;stroke-width:1.5;stroke-linecap:round;stroke-linejoin:round;stroke-miterlimit:10;" d="
					M340.112,250.487c0.82,3.178,3.949,5.602,7.231,5.603c3.281,0,6.411-2.424,7.232-5.601"/>
			</g>
			<g>
				<path style="fill:#FFFFFF;" d="M317.898,323.142c-11.37,24.731-35.623,42.704-63.081,47.162
					c-10.802,1.744-21.85,1.37-32.677,2.881c-10.841,1.499-21.953,5.259-29.124,13.515c-0.698,0.801-1.37,1.654-2.042,2.52
					c-0.039-2.907-0.4-5.789-1.085-8.605c11.719-12.197,25.765-18.865,42.148-23.09c16.384-4.225,33.285-6.461,49.358-11.758
					C295.144,341.244,308.608,334.06,317.898,323.142z"/>
				<path style="fill:none;stroke:#060305;stroke-width:1.5;stroke-linecap:round;stroke-linejoin:round;stroke-miterlimit:10;" d="
					M208.836,375.199c0.855-2.581,3.229-4.594,5.915-5.015c2.686-0.421,5.563,0.768,7.167,2.963"/>
				<path style="fill:none;stroke:#060305;stroke-width:1.5;stroke-linecap:round;stroke-linejoin:round;stroke-miterlimit:10;" d="
					M242.089,371.488c-0.382-4.953,3.48-9.869,8.382-10.671c4.902-0.802,10.129,2.629,11.344,7.446"/>
				<path style="fill:none;stroke:#060305;stroke-width:1.5;stroke-linecap:round;stroke-linejoin:round;stroke-miterlimit:10;" d="
					M280.536,360.457c-0.912-3.366,0.63-7.245,3.604-9.068c2.974-1.822,7.13-1.435,9.716,0.906"/>
				<path style="fill:none;stroke:#060305;stroke-width:1.5;stroke-linecap:round;stroke-linejoin:round;stroke-miterlimit:10;" d="
					M249.428,371.033c29.375-2.831,56.678-21.814,69.562-48.364"/>
			</g>
			<g>
				<path style="fill:#FF5B3B;" d="M310.131,179.671c0,26.677-21.637,48.314-48.314,48.314h-0.379l0.074-3.599
					c-2.852-11.555-5.704-23.099-8.545-34.654c-4.809-19.532-1.231-42.441,11.124-58.322
					C289.715,132.6,310.131,153.752,310.131,179.671z"/>
				<path style="fill:#FF5B3B;" d="M280.044,290.021c0,20.09-16.29,36.38-36.369,36.38c-9.766,0-18.627-3.852-25.162-10.113
					c2.684-1.673,5.367-3.368,7.998-5.114c14.038-9.303,27.793-24.173,33.991-39.821l0.284-13.428
					C272.246,264.049,280.044,276.12,280.044,290.021z"/>
				<path style="fill:#FF5B3B;" d="M312.802,134.914c0-3.522-2.855-6.377-6.377-6.377c-3.522,0-6.377,2.855-6.377,6.377
					s2.855,6.377,6.377,6.377C309.947,141.291,312.802,138.436,312.802,134.914z"/>
				<path style="fill:#FF5B3B;" d="M433.192,316.61c0-3.522-2.855-6.377-6.377-6.377c-3.522,0-6.377,2.855-6.377,6.377
					c0,3.522,2.855,6.377,6.377,6.377C430.337,322.987,433.192,320.132,433.192,316.61z"/>
				<circle style="fill:#FF5B3B;" cx="325.896" cy="153.98" r="9.121"/>
				
					<ellipse transform="matrix(0.3827 -0.9239 0.9239 0.3827 -27.2562 561.9918)" style="fill:#FF5B3B;" cx="406.912" cy="301.392" rx="9.121" ry="9.121"/>
			</g>
			<g>
				<path style="fill:none;stroke:#FFFFFF;stroke-width:1.5;stroke-linecap:round;stroke-linejoin:round;stroke-miterlimit:10;" d="
					M480.396,401.518c3.841,1.945,9.2-0.696,9.998-4.927"/>
				<path style="fill:none;stroke:#060305;stroke-width:1.5;stroke-linecap:round;stroke-linejoin:round;stroke-miterlimit:10;" d="
					M218.513,316.288c0,0,18.701-10.142,31.357-26.798"/>
				<path style="fill:none;stroke:#060305;stroke-width:1.5;stroke-linecap:round;stroke-linejoin:round;stroke-miterlimit:10;" d="
					M400.849,360.281c10.595-0.038,21.193,0.816,31.645,2.549"/>
				<path style="fill:none;stroke:#FFFFFF;stroke-width:1.5;stroke-linecap:round;stroke-linejoin:round;stroke-miterlimit:10;" d="
					M171.69,389.735c0.483,2.778,2.954,5.087,5.758,5.379c2.804,0.293,5.699-1.455,6.745-4.074"/>
				<path style="fill:none;stroke:#060305;stroke-width:1.5;stroke-linecap:round;stroke-linejoin:round;stroke-miterlimit:10;" d="
					M323.364,309.555c-1.649-2.599-3.298-5.198-4.947-7.796"/>
				<path style="fill:none;stroke:#FFFFFF;stroke-width:1.5;stroke-linecap:round;stroke-linejoin:round;stroke-miterlimit:10;" d="
					M262.905,156.26c0.63-14.961,11.142-29.023,25.313-33.861"/>
			</g>
		</g>
	</g>
</g>
</svg>
